<svg width="181" height="47" viewBox="0 0 181 47" fill="none" xmlns="http://www.w3.org/2000/svg">
<path d="M33.7505 8.00168C32.2393 2.66763 27.5677 0 19.7347 0H17.1772H16.861H0V37.482H16.861H17.1772H34.5173V14.0442C34.5173 11.7727 34.2617 9.75856 33.7505 8.00168Z" fill="url(#paint0_linear)"/>
<path d="M180.895 33.5698C180.69 32.8446 180.055 32.4819 178.989 32.4819H178.642H178.599H176.307V37.5778H178.599H178.642H181V34.3908C181 34.082 180.964 33.808 180.895 33.5698Z" fill="#0CC8F2"/>
<path d="M77.3849 33.5698C76.8368 32.8446 75.1413 32.4819 72.2984 32.4819H71.3699H71.2557H65.1372V37.5778H71.2557H71.3699H77.6631V34.3908C77.6631 34.082 77.5704 33.808 77.3849 33.5698Z" fill="#0CC8F2"/>
<path d="M65.1883 37.5778H61.8449C60.8902 37.5778 60.109 37.2739 59.505 36.6647C58.8986 36.0567 58.5978 35.2704 58.5978 34.3094V21.2334C58.5978 19.6955 58.1353 18.5742 57.2126 17.8681C56.2888 17.1632 55.2544 16.8101 54.1082 16.8101C52.962 16.8101 51.9431 17.1632 51.0513 17.8681C50.1584 18.5742 49.7137 19.6943 49.7137 21.2334V37.5778H43.0281V22.5786C43.0281 18.2199 44.1576 15.3045 46.4191 13.8289C48.6781 12.3557 51.1785 11.555 53.9168 11.4258C56.718 11.4258 59.2969 12.163 61.6535 13.6374C64.0089 15.1131 65.1871 18.093 65.1871 22.5786V37.5778H65.1883Z" fill="#05C7F2"/>
<path d="M84.9219 36.0676C83.5843 36.7605 82.167 37.1842 80.6712 37.3421C79.1743 37.4989 77.8534 37.5779 76.7072 37.5779C74.4148 37.5779 72.409 36.9639 70.6897 35.7372C68.9705 34.5093 68.1108 32.4796 68.1108 29.648C68.1108 27.0043 68.8896 25.1158 70.4508 23.9837C72.0107 22.8503 73.9999 22.0951 76.4206 21.7182C76.7381 21.7182 77.1209 21.6715 77.5668 21.5769C78.0115 21.4824 78.5228 21.4046 79.0947 21.3412C81.8959 20.963 83.2977 20.1468 83.2977 18.8866C83.2977 17.9423 82.8043 17.3284 81.8174 17.0459C80.8294 16.7623 79.9222 16.6211 79.0947 16.6211C78.2017 16.6211 77.4063 16.7479 76.7072 16.998C76.0057 17.2506 75.4968 17.7221 75.1793 18.4138H68.7802C69.0335 16.4631 69.9264 14.8582 71.4543 13.5992C73.1735 12.1523 75.624 11.4282 78.8093 11.4282C82.3751 11.4282 85.0491 12.0266 86.8326 13.2222C88.679 14.4824 89.6029 16.2429 89.6029 18.5096V27.1001C89.6029 29.6181 89.1404 31.5844 88.2177 33.0002C87.2939 34.4148 86.1953 35.4381 84.9219 36.0676ZM83.394 24.4552C82.5011 24.8968 81.2598 25.3049 79.6689 25.6819L77.4717 26.1534C76.3255 26.4694 75.4968 26.8775 74.9879 27.3801C74.542 28.0731 74.3197 28.7648 74.3197 29.4565C74.3197 30.4008 74.6063 31.156 75.1793 31.722C75.7524 32.2271 76.58 32.4772 77.6631 32.4772C79.4454 32.4772 80.846 31.9746 81.8662 30.9669C82.8839 29.9604 83.394 28.5757 83.394 26.8128V24.4552Z" fill="#05C7F2"/>
<path d="M98.7855 43.7305C98.7855 44.6269 98.4657 45.3964 97.8307 46.0379C97.1934 46.6782 96.4289 46.9989 95.5384 46.9989H92.2913V23.0597C92.2913 18.5742 93.5956 15.5128 96.2078 13.878C98.8176 12.2432 101.652 11.4258 104.709 11.4258C106.3 11.4258 107.909 11.731 109.533 12.3389C111.157 12.9493 112.446 13.8289 113.402 14.9826C115.312 17.4827 116.267 20.6877 116.267 24.5976C116.267 28.6355 115.311 31.9039 113.402 34.404C111.489 36.8418 109.037 38.0578 106.044 38.0578C104.452 38.0578 103.05 37.7693 101.841 37.1925C100.567 36.5522 99.5488 35.5577 98.7843 34.2125V43.7305H98.7855ZM109.674 24.886C109.674 22.3859 109.196 20.4639 108.241 19.1175C107.287 17.7711 105.916 17.0985 104.135 17.0985C102.415 17.0985 101.078 17.7711 100.123 19.1175C99.2302 20.3358 98.7855 22.259 98.7855 24.886C98.7855 27.3226 99.2635 29.1489 100.218 30.366C101.173 31.7124 102.542 32.385 104.325 32.385C105.98 32.385 107.286 31.7124 108.241 30.366C109.197 29.0197 109.674 27.1934 109.674 24.886Z" fill="#05C7F2"/>
<path d="M125.591 12.0024V21.4247L133.71 12.0024H141.734L132.659 21.8089L141.829 37.5765H133.806L129.126 28.9237C128.171 27.1932 127.342 26.4572 126.642 26.7121C125.94 26.9694 125.591 27.3536 125.591 27.8658V31.4226V37.5765H118.905V4.50342H122.344C123.234 4.50342 123.999 4.82535 124.636 5.46443C125.272 6.10591 125.591 6.84313 125.591 7.67608V12.0024Z" fill="#05C7F2"/>
<path d="M144.805 12.0024H148.243C149.134 12.0024 149.899 12.3244 150.536 12.9635C151.172 13.6049 151.491 14.3745 151.491 15.2709V37.5765H144.805V12.0024Z" fill="#05C7F2"/>
<path d="M176.383 37.5778H173.04C172.085 37.5778 171.304 37.2739 170.7 36.6647C170.093 36.0567 169.793 35.2704 169.793 34.3094V21.2334C169.793 19.6955 169.33 18.5742 168.407 17.8681C167.484 17.1632 166.449 16.8101 165.303 16.8101C164.157 16.8101 163.138 17.1632 162.246 17.8681C161.353 18.5742 160.909 19.6943 160.909 21.2334V37.5778H154.223V22.5786C154.223 18.2199 155.352 15.3045 157.614 13.8289C159.873 12.3557 162.373 11.555 165.112 11.4258C167.913 11.4258 170.492 12.163 172.848 13.6374C175.204 15.1131 176.382 18.093 176.382 22.5786V37.5778H176.383Z" fill="#05C7F2"/>
<path d="M148.148 10.1379C149.995 10.1379 151.492 8.63121 151.492 6.77258C151.492 4.91394 149.995 3.40723 148.148 3.40723C146.302 3.40723 144.805 4.91394 144.805 6.77258C144.805 8.63121 146.302 10.1379 148.148 10.1379Z" fill="#05C7F2"/>
<path d="M148.148 6.77246H144.805V10.1378H148.148V6.77246Z" fill="#05C7F2"/>
<defs>
<linearGradient id="paint0_linear" x1="-0.680169" y1="36.7972" x2="31.9775" y2="4.35244" gradientUnits="userSpaceOnUse">
<stop stop-color="#7F71D9"/>
<stop offset="1" stop-color="#0CC8F2"/>
</linearGradient>
</defs>
</svg>
